# xmcd CD database file
#
# Track frame offsets:
#	150
#	15340
#	32442
#	48243
#	61324
#	76034
#	92584
#	109308
#	131152
#	143328
#	160382
#	173136
#	181267
#	191968
#	205213
#	219574
#	226225
#	241133
#	263537
#
# Disc length: 3793 seconds
#
# Revision: 0
# Processed by: cddbd v1.5.2PL0 Copyright (c) Steve Scherf et al.
# Submitted via: CDex 1.51
#
DISCID=f20ecf13
DTITLE=JJ Defer et S'N'Orchestre - Defer Mène La Danse
DYEAR=2011
DGENRE=Ambiance
TTITLE0=Les pouces en avant
TTITLE1=Jean Petit qui Danse
TTITLE2=Cotton eye Joe
TTITLE3=Rucky Zucky
TTITLE4=Le petit pont
TTITLE5=Le scottish à Pascal
TTITLE6=50 ans à s'aimer
TTITLE7=Le ouchouchouche
TTITLE8=De gauche à droite
TTITLE9=Medley Scottish
TTITLE10=Tagada
TTITLE11=Le toureloure
TTITLE12=Arbaisse te
TTITLE13=Le p'tit Quinquin
TTITLE14=Joyeux anniversaire
TTITLE15=Vivat flamand
TTITLE16=J'aimeros tint
TTITLE17=Le madisouche
TTITLE18=Le ouch ouch ouche rock
EXTD=YEAR: 2011
EXTT0=
EXTT1=
EXTT2=
EXTT3=
EXTT4=
EXTT5=
EXTT6=
EXTT7=
EXTT8=
EXTT9=
EXTT10=
EXTT11=
EXTT12=
EXTT13=
EXTT14=
EXTT15=
EXTT16=
EXTT17=
EXTT18=
PLAYORDER=
